<svg xmlns="http://www.w3.org/2000/svg" width="512" height="512" viewBox="0 0 512 512" role="img" aria-label="FootLumen visual identity asset">

  <defs>
    <linearGradient id="fl-blue-grad" x1="0" y1="0" x2="1" y2="1">
      <stop offset="0%" stop-color="#123B73"/>
      <stop offset="100%" stop-color="#0A244A"/>
    </linearGradient>
    <linearGradient id="fl-accent-grad" x1="0" y1="0" x2="1" y2="1">
      <stop offset="0%" stop-color="#22C7E8"/>
      <stop offset="100%" stop-color="#27C77A"/>
    </linearGradient>
    <radialGradient id="fl-halo" cx="50%" cy="45%" r="60%">
      <stop offset="0%" stop-color="#22C7E8" stop-opacity="0.28"/>
      <stop offset="55%" stop-color="#22C7E8" stop-opacity="0.07"/>
      <stop offset="100%" stop-color="#22C7E8" stop-opacity="0"/>
    </radialGradient>
    <filter id="fl-soft-glow" x="-30%" y="-30%" width="160%" height="160%">
      <feGaussianBlur stdDeviation="4" result="blur"/>
      <feMerge>
        <feMergeNode in="blur"/>
        <feMergeNode in="SourceGraphic"/>
      </feMerge>
    </filter>
    
  </defs>


  <g transform="translate(44 44) scale(0.828125)">
    <circle cx="256" cy="256" r="184" fill="url(#fl-blue-grad)"/>
    <circle cx="256" cy="256" r="184" fill="url(#fl-halo)"/>
    <circle cx="256" cy="256" r="197" fill="none" stroke="#22C7E8" stroke-width="15" stroke-linecap="round" stroke-dasharray="690 220" transform="rotate(-36 256 256)"/>
    <circle cx="256" cy="256" r="197" fill="none" stroke="#27C77A" stroke-width="15" stroke-linecap="round" stroke-dasharray="165 755" transform="rotate(146 256 256)"/>
    <path d="M158 199 C196 163 316 163 354 199 C375 221 375 291 354 313 C316 349 196 349 158 313 C137 291 137 221 158 199 Z" fill="none" stroke="#FFFFFF" stroke-width="11" stroke-linejoin="round" opacity="0.88"/>
    <path d="M256 166 V346" fill="none" stroke="#FFFFFF" stroke-width="9" stroke-linecap="round" opacity="0.72"/>
    <circle cx="256" cy="256" r="42" fill="none" stroke="#FFFFFF" stroke-width="9" opacity="0.72"/>
    <path d="M178 300 L232 236 L300 268 L348 202" fill="none" stroke="#22C7E8" stroke-width="13" stroke-linecap="round" stroke-linejoin="round"/>
    <circle cx="178" cy="300" r="15" fill="#FFFFFF" stroke="#22C7E8" stroke-width="7"/>
    <circle cx="232" cy="236" r="15" fill="#27C77A" stroke="#FFFFFF" stroke-width="6"/>
    <circle cx="300" cy="268" r="15" fill="#22C7E8" stroke="#FFFFFF" stroke-width="6"/>
    <circle cx="348" cy="202" r="15" fill="#FFFFFF" stroke="#22C7E8" stroke-width="7"/>
    <path d="M339 123 L401 93" stroke="#22C7E8" stroke-width="10" stroke-linecap="round" opacity="0.72"/>
    <path d="M365 151 L421 143" stroke="#22C7E8" stroke-width="8" stroke-linecap="round" opacity="0.45"/>
  </g>

</svg>
