<svg xmlns="http://www.w3.org/2000/svg" width="1800" height="1450" viewBox="0 0 1800 1450" role="img" aria-label="FootLumen visual identity asset">

  <defs>
    <linearGradient id="fl-blue-grad" x1="0" y1="0" x2="1" y2="1">
      <stop offset="0%" stop-color="#123B73"/>
      <stop offset="100%" stop-color="#0A244A"/>
    </linearGradient>
    <linearGradient id="fl-accent-grad" x1="0" y1="0" x2="1" y2="1">
      <stop offset="0%" stop-color="#22C7E8"/>
      <stop offset="100%" stop-color="#27C77A"/>
    </linearGradient>
    <radialGradient id="fl-halo" cx="50%" cy="45%" r="60%">
      <stop offset="0%" stop-color="#22C7E8" stop-opacity="0.28"/>
      <stop offset="55%" stop-color="#22C7E8" stop-opacity="0.07"/>
      <stop offset="100%" stop-color="#22C7E8" stop-opacity="0"/>
    </radialGradient>
    <filter id="fl-soft-glow" x="-30%" y="-30%" width="160%" height="160%">
      <feGaussianBlur stdDeviation="4" result="blur"/>
      <feMerge>
        <feMergeNode in="blur"/>
        <feMergeNode in="SourceGraphic"/>
      </feMerge>
    </filter>
    
  </defs>


  <rect width="1800" height="1450" fill="#F6FAFF"/>
  <text x="96" y="112" font-family="'DejaVu Sans', 'Arial', sans-serif" font-size="52" font-weight="850" fill="#123B73">FootLumen</text>
  <text x="96" y="162" font-family="'DejaVu Sans', 'Arial', sans-serif" font-size="28" font-weight="500" fill="#5E708A">Pack d'identite visuelle - football, data, clarte</text>
  <rect x="96" y="220" width="1608" height="350" rx="42" fill="#FFFFFF"/>
  
  <g transform="translate(145 258) scale(0.5078125)">
    <circle cx="256" cy="256" r="184" fill="url(#fl-blue-grad)"/>
    <circle cx="256" cy="256" r="184" fill="url(#fl-halo)"/>
    <circle cx="256" cy="256" r="197" fill="none" stroke="#22C7E8" stroke-width="15" stroke-linecap="round" stroke-dasharray="690 220" transform="rotate(-36 256 256)"/>
    <circle cx="256" cy="256" r="197" fill="none" stroke="#27C77A" stroke-width="15" stroke-linecap="round" stroke-dasharray="165 755" transform="rotate(146 256 256)"/>
    <path d="M158 199 C196 163 316 163 354 199 C375 221 375 291 354 313 C316 349 196 349 158 313 C137 291 137 221 158 199 Z" fill="none" stroke="#FFFFFF" stroke-width="11" stroke-linejoin="round" opacity="0.88"/>
    <path d="M256 166 V346" fill="none" stroke="#FFFFFF" stroke-width="9" stroke-linecap="round" opacity="0.72"/>
    <circle cx="256" cy="256" r="42" fill="none" stroke="#FFFFFF" stroke-width="9" opacity="0.72"/>
    <path d="M178 300 L232 236 L300 268 L348 202" fill="none" stroke="#22C7E8" stroke-width="13" stroke-linecap="round" stroke-linejoin="round"/>
    <circle cx="178" cy="300" r="15" fill="#FFFFFF" stroke="#22C7E8" stroke-width="7"/>
    <circle cx="232" cy="236" r="15" fill="#27C77A" stroke="#FFFFFF" stroke-width="6"/>
    <circle cx="300" cy="268" r="15" fill="#22C7E8" stroke="#FFFFFF" stroke-width="6"/>
    <circle cx="348" cy="202" r="15" fill="#FFFFFF" stroke="#22C7E8" stroke-width="7"/>
    <path d="M339 123 L401 93" stroke="#22C7E8" stroke-width="10" stroke-linecap="round" opacity="0.72"/>
    <path d="M365 151 L421 143" stroke="#22C7E8" stroke-width="8" stroke-linecap="round" opacity="0.45"/>
  </g>

  
  <text x="465.0" y="410.0" font-family="'DejaVu Sans', 'Arial', sans-serif" font-size="106" font-weight="850" letter-spacing="-3.39" fill="#123B73">Foot</text>
  <text x="696.1" y="410.0" font-family="'DejaVu Sans', 'Arial', sans-serif" font-size="106" font-weight="850" letter-spacing="-3.39" fill="#22C7E8">Lumen</text>

  <text x="470" y="492" font-family="'DejaVu Sans', 'Arial', sans-serif" font-size="32" font-weight="500" letter-spacing="1.0" fill="#5E708A">Éclaire le match par la data.</text>
  <rect x="96" y="630" width="500" height="530" rx="42" fill="#FFFFFF"/>
  <text x="136" y="698" font-family="'DejaVu Sans', 'Arial', sans-serif" font-size="30" font-weight="800" fill="#123B73">Symbole</text>
  
  <g transform="translate(176 760) scale(0.6640625)">
    <circle cx="256" cy="256" r="184" fill="url(#fl-blue-grad)"/>
    <circle cx="256" cy="256" r="184" fill="url(#fl-halo)"/>
    <circle cx="256" cy="256" r="197" fill="none" stroke="#22C7E8" stroke-width="15" stroke-linecap="round" stroke-dasharray="690 220" transform="rotate(-36 256 256)"/>
    <circle cx="256" cy="256" r="197" fill="none" stroke="#27C77A" stroke-width="15" stroke-linecap="round" stroke-dasharray="165 755" transform="rotate(146 256 256)"/>
    <path d="M158 199 C196 163 316 163 354 199 C375 221 375 291 354 313 C316 349 196 349 158 313 C137 291 137 221 158 199 Z" fill="none" stroke="#FFFFFF" stroke-width="11" stroke-linejoin="round" opacity="0.88"/>
    <path d="M256 166 V346" fill="none" stroke="#FFFFFF" stroke-width="9" stroke-linecap="round" opacity="0.72"/>
    <circle cx="256" cy="256" r="42" fill="none" stroke="#FFFFFF" stroke-width="9" opacity="0.72"/>
    <path d="M178 300 L232 236 L300 268 L348 202" fill="none" stroke="#22C7E8" stroke-width="13" stroke-linecap="round" stroke-linejoin="round"/>
    <circle cx="178" cy="300" r="15" fill="#FFFFFF" stroke="#22C7E8" stroke-width="7"/>
    <circle cx="232" cy="236" r="15" fill="#27C77A" stroke="#FFFFFF" stroke-width="6"/>
    <circle cx="300" cy="268" r="15" fill="#22C7E8" stroke="#FFFFFF" stroke-width="6"/>
    <circle cx="348" cy="202" r="15" fill="#FFFFFF" stroke="#22C7E8" stroke-width="7"/>
    <path d="M339 123 L401 93" stroke="#22C7E8" stroke-width="10" stroke-linecap="round" opacity="0.72"/>
    <path d="M365 151 L421 143" stroke="#22C7E8" stroke-width="8" stroke-linecap="round" opacity="0.45"/>
  </g>

  <rect x="650" y="630" width="500" height="530" rx="42" fill="#123B73"/>
  <text x="690" y="698" font-family="'DejaVu Sans', 'Arial', sans-serif" font-size="30" font-weight="800" fill="#FFFFFF">Version blanche</text>
  
  <g transform="translate(730 760) scale(0.6640625)">
    
    
    <circle cx="256" cy="256" r="197" fill="none" stroke="#FFFFFF" stroke-width="15" stroke-linecap="round" stroke-dasharray="690 220" transform="rotate(-36 256 256)"/>
    <circle cx="256" cy="256" r="197" fill="none" stroke="#FFFFFF" stroke-width="15" stroke-linecap="round" stroke-dasharray="165 755" transform="rotate(146 256 256)"/>
    <path d="M158 199 C196 163 316 163 354 199 C375 221 375 291 354 313 C316 349 196 349 158 313 C137 291 137 221 158 199 Z" fill="none" stroke="#FFFFFF" stroke-width="11" stroke-linejoin="round" opacity="0.90"/>
    <path d="M256 166 V346" fill="none" stroke="#FFFFFF" stroke-width="9" stroke-linecap="round" opacity="0.72"/>
    <circle cx="256" cy="256" r="42" fill="none" stroke="#FFFFFF" stroke-width="9" opacity="0.72"/>
    <path d="M178 300 L232 236 L300 268 L348 202" fill="none" stroke="#FFFFFF" stroke-width="13" stroke-linecap="round" stroke-linejoin="round"/>
    <circle cx="178" cy="300" r="15" fill="#FFFFFF" stroke="#FFFFFF" stroke-width="7"/>
    <circle cx="232" cy="236" r="15" fill="#FFFFFF" stroke="#FFFFFF" stroke-width="6"/>
    <circle cx="300" cy="268" r="15" fill="#FFFFFF" stroke="#FFFFFF" stroke-width="6"/>
    <circle cx="348" cy="202" r="15" fill="#FFFFFF" stroke="#FFFFFF" stroke-width="7"/>
    <path d="M339 123 L401 93" stroke="#FFFFFF" stroke-width="10" stroke-linecap="round" opacity="0.72"/>
    <path d="M365 151 L421 143" stroke="#FFFFFF" stroke-width="8" stroke-linecap="round" opacity="0.45"/>
  </g>

  <rect x="1204" y="630" width="500" height="530" rx="42" fill="#FFFFFF"/>
  <text x="1244" y="698" font-family="'DejaVu Sans', 'Arial', sans-serif" font-size="30" font-weight="800" fill="#123B73">Monogramme FL</text>
  <g transform="translate(1300 760) scale(0.64)">
    <rect x="0" y="0" width="512" height="512" rx="112" fill="url(#fl-blue-grad)"/>
    <circle cx="256" cy="256" r="188" fill="url(#fl-halo)"/>
    <circle cx="256" cy="256" r="203" fill="none" stroke="#22C7E8" stroke-width="13" stroke-linecap="round" stroke-dasharray="530 300" transform="rotate(-42 256 256)"/>
    <circle cx="256" cy="256" r="203" fill="none" stroke="#27C77A" stroke-width="13" stroke-linecap="round" stroke-dasharray="135 695" transform="rotate(142 256 256)"/>
    <text x="250" y="310" text-anchor="middle" font-family="'DejaVu Sans', 'Arial', sans-serif" font-size="168" font-weight="850" letter-spacing="-14" fill="#FFFFFF">F<tspan fill="#22C7E8">L</tspan></text>
    <path d="M152 345 H360" stroke="#27C77A" stroke-width="14" stroke-linecap="round" opacity="0.95"/>
  </g>
  <text x="96" y="1248" font-family="'DejaVu Sans', 'Arial', sans-serif" font-size="34" font-weight="850" fill="#123B73">Palette</text>
  <g transform="translate(96 1284)">
    <rect width="315" height="80" rx="18" fill="#123B73"/><text x="24" y="51" font-family="'DejaVu Sans', 'Arial', sans-serif" font-size="24" font-weight="800" fill="#FFFFFF">#123B73</text>
    <rect x="350" width="315" height="80" rx="18" fill="#22C7E8"/><text x="374" y="51" font-family="'DejaVu Sans', 'Arial', sans-serif" font-size="24" font-weight="800" fill="#0A244A">#22C7E8</text>
    <rect x="700" width="315" height="80" rx="18" fill="#27C77A"/><text x="724" y="51" font-family="'DejaVu Sans', 'Arial', sans-serif" font-size="24" font-weight="800" fill="#0A244A">#27C77A</text>
    <rect x="1050" width="315" height="80" rx="18" fill="#FFFFFF" stroke="#D9E6F2"/><text x="1074" y="51" font-family="'DejaVu Sans', 'Arial', sans-serif" font-size="24" font-weight="800" fill="#123B73">#FFFFFF</text>
  </g>

</svg>
